<mxfile host="app.diagrams.net" modified="2021-04-11T12:48:39.924Z" agent="5.0 (Macintosh; Intel Mac OS X 10_15_6) AppleWebKit/605.1.15 (KHTML, like Gecko) Version/14.0.3 Safari/605.1.15" etag="ciZlv9LuXtm4kFAgT7ZO" version="14.5.7" type="github">
  <diagram id="mOsE3MyUd8TZkOecmfLV" name="Page-1">
    <mxGraphModel dx="945" dy="546" grid="1" gridSize="10" guides="1" tooltips="1" connect="1" arrows="1" fold="1" page="1" pageScale="1" pageWidth="827" pageHeight="1169" math="0" shadow="0">
      <root>
        <mxCell id="0" />
        <mxCell id="1" parent="0" />
        <mxCell id="pqXaqxEOWgDYT0DXLncM-4" style="edgeStyle=orthogonalEdgeStyle;rounded=0;orthogonalLoop=1;jettySize=auto;html=1;exitX=0;exitY=0.5;exitDx=0;exitDy=0;entryX=1;entryY=0.5;entryDx=0;entryDy=0;" edge="1" parent="1" source="pqXaqxEOWgDYT0DXLncM-1" target="pqXaqxEOWgDYT0DXLncM-3">
          <mxGeometry relative="1" as="geometry" />
        </mxCell>
        <mxCell id="pqXaqxEOWgDYT0DXLncM-1" value="Start" style="ellipse;whiteSpace=wrap;html=1;" vertex="1" parent="1">
          <mxGeometry x="354" y="10" width="120" height="80" as="geometry" />
        </mxCell>
        <mxCell id="pqXaqxEOWgDYT0DXLncM-28" style="edgeStyle=orthogonalEdgeStyle;rounded=0;orthogonalLoop=1;jettySize=auto;html=1;" edge="1" parent="1" source="pqXaqxEOWgDYT0DXLncM-3">
          <mxGeometry relative="1" as="geometry">
            <mxPoint x="250" y="140" as="targetPoint" />
          </mxGeometry>
        </mxCell>
        <mxCell id="pqXaqxEOWgDYT0DXLncM-3" value="Pick own your box" style="rounded=0;whiteSpace=wrap;html=1;" vertex="1" parent="1">
          <mxGeometry x="190" y="20" width="120" height="60" as="geometry" />
        </mxCell>
        <mxCell id="pqXaqxEOWgDYT0DXLncM-32" style="edgeStyle=orthogonalEdgeStyle;rounded=0;orthogonalLoop=1;jettySize=auto;html=1;entryX=0.5;entryY=0;entryDx=0;entryDy=0;" edge="1" parent="1" source="pqXaqxEOWgDYT0DXLncM-5" target="pqXaqxEOWgDYT0DXLncM-12">
          <mxGeometry relative="1" as="geometry" />
        </mxCell>
        <mxCell id="pqXaqxEOWgDYT0DXLncM-5" value="pick a box" style="rounded=0;whiteSpace=wrap;html=1;" vertex="1" parent="1">
          <mxGeometry x="190" y="250" width="120" height="60" as="geometry" />
        </mxCell>
        <mxCell id="pqXaqxEOWgDYT0DXLncM-13" style="edgeStyle=orthogonalEdgeStyle;rounded=0;orthogonalLoop=1;jettySize=auto;html=1;entryX=0;entryY=0.65;entryDx=0;entryDy=0;entryPerimeter=0;" edge="1" parent="1" source="pqXaqxEOWgDYT0DXLncM-12" target="pqXaqxEOWgDYT0DXLncM-5">
          <mxGeometry relative="1" as="geometry">
            <mxPoint x="130" y="170" as="targetPoint" />
            <Array as="points">
              <mxPoint x="170" y="400" />
              <mxPoint x="170" y="289" />
            </Array>
          </mxGeometry>
        </mxCell>
        <mxCell id="pqXaqxEOWgDYT0DXLncM-14" value="NO" style="edgeLabel;html=1;align=center;verticalAlign=middle;resizable=0;points=[];" vertex="1" connectable="0" parent="pqXaqxEOWgDYT0DXLncM-13">
          <mxGeometry x="0.2865" y="5" relative="1" as="geometry">
            <mxPoint x="-5" y="37" as="offset" />
          </mxGeometry>
        </mxCell>
        <mxCell id="pqXaqxEOWgDYT0DXLncM-34" style="edgeStyle=orthogonalEdgeStyle;rounded=0;orthogonalLoop=1;jettySize=auto;html=1;entryX=0;entryY=0.5;entryDx=0;entryDy=0;" edge="1" parent="1" source="pqXaqxEOWgDYT0DXLncM-12" target="pqXaqxEOWgDYT0DXLncM-18">
          <mxGeometry relative="1" as="geometry" />
        </mxCell>
        <mxCell id="pqXaqxEOWgDYT0DXLncM-12" value="Did offer?" style="rhombus;whiteSpace=wrap;html=1;" vertex="1" parent="1">
          <mxGeometry x="220" y="360" width="80" height="80" as="geometry" />
        </mxCell>
        <mxCell id="pqXaqxEOWgDYT0DXLncM-19" style="edgeStyle=orthogonalEdgeStyle;rounded=0;orthogonalLoop=1;jettySize=auto;html=1;" edge="1" parent="1" source="pqXaqxEOWgDYT0DXLncM-18">
          <mxGeometry relative="1" as="geometry">
            <mxPoint x="610" y="260" as="targetPoint" />
          </mxGeometry>
        </mxCell>
        <mxCell id="pqXaqxEOWgDYT0DXLncM-26" style="edgeStyle=orthogonalEdgeStyle;rounded=0;orthogonalLoop=1;jettySize=auto;html=1;entryX=1;entryY=0.25;entryDx=0;entryDy=0;" edge="1" parent="1" source="pqXaqxEOWgDYT0DXLncM-18" target="pqXaqxEOWgDYT0DXLncM-5">
          <mxGeometry relative="1" as="geometry" />
        </mxCell>
        <mxCell id="pqXaqxEOWgDYT0DXLncM-36" style="edgeStyle=orthogonalEdgeStyle;rounded=0;orthogonalLoop=1;jettySize=auto;html=1;entryX=1;entryY=0.25;entryDx=0;entryDy=0;" edge="1" parent="1" source="pqXaqxEOWgDYT0DXLncM-18" target="pqXaqxEOWgDYT0DXLncM-29">
          <mxGeometry relative="1" as="geometry">
            <mxPoint x="420" y="170" as="targetPoint" />
            <Array as="points">
              <mxPoint x="400" y="155" />
            </Array>
          </mxGeometry>
        </mxCell>
        <mxCell id="pqXaqxEOWgDYT0DXLncM-18" value="ACCEPTED?" style="rhombus;whiteSpace=wrap;html=1;" vertex="1" parent="1">
          <mxGeometry x="380" y="350" width="80" height="80" as="geometry" />
        </mxCell>
        <mxCell id="pqXaqxEOWgDYT0DXLncM-21" value="Finish" style="ellipse;whiteSpace=wrap;html=1;" vertex="1" parent="1">
          <mxGeometry x="610" y="220" width="120" height="80" as="geometry" />
        </mxCell>
        <mxCell id="pqXaqxEOWgDYT0DXLncM-30" style="edgeStyle=orthogonalEdgeStyle;rounded=0;orthogonalLoop=1;jettySize=auto;html=1;entryX=0.5;entryY=0;entryDx=0;entryDy=0;" edge="1" parent="1" source="pqXaqxEOWgDYT0DXLncM-29" target="pqXaqxEOWgDYT0DXLncM-5">
          <mxGeometry relative="1" as="geometry" />
        </mxCell>
        <mxCell id="pqXaqxEOWgDYT0DXLncM-39" value="NO" style="edgeStyle=orthogonalEdgeStyle;rounded=0;orthogonalLoop=1;jettySize=auto;html=1;" edge="1" parent="1" source="pqXaqxEOWgDYT0DXLncM-29" target="pqXaqxEOWgDYT0DXLncM-21">
          <mxGeometry relative="1" as="geometry" />
        </mxCell>
        <mxCell id="pqXaqxEOWgDYT0DXLncM-29" value="Box Left?" style="rounded=0;whiteSpace=wrap;html=1;" vertex="1" parent="1">
          <mxGeometry x="190" y="140" width="120" height="60" as="geometry" />
        </mxCell>
        <mxCell id="pqXaqxEOWgDYT0DXLncM-31" value="YES" style="text;html=1;align=center;verticalAlign=middle;resizable=0;points=[];autosize=1;" vertex="1" parent="1">
          <mxGeometry x="210" y="220" width="40" height="20" as="geometry" />
        </mxCell>
        <mxCell id="pqXaqxEOWgDYT0DXLncM-35" value="YES" style="text;html=1;align=center;verticalAlign=middle;resizable=0;points=[];autosize=1;" vertex="1" parent="1">
          <mxGeometry x="310" y="400" width="40" height="20" as="geometry" />
        </mxCell>
        <mxCell id="pqXaqxEOWgDYT0DXLncM-37" value="NO" style="text;html=1;align=center;verticalAlign=middle;resizable=0;points=[];autosize=1;" vertex="1" parent="1">
          <mxGeometry x="395" y="260" width="30" height="20" as="geometry" />
        </mxCell>
        <mxCell id="pqXaqxEOWgDYT0DXLncM-38" value="YES" style="text;html=1;align=center;verticalAlign=middle;resizable=0;points=[];autosize=1;" vertex="1" parent="1">
          <mxGeometry x="480" y="370" width="40" height="20" as="geometry" />
        </mxCell>
      </root>
    </mxGraphModel>
  </diagram>
</mxfile>
